<svg xmlns="http://www.w3.org/2000/svg" width="54.099" height="42.717" viewBox="0 0 54.099 42.717">
  <g id="Group_1852" data-name="Group 1852" transform="translate(-998 -117.283)">
    <g id="quran_edit_17-2" data-name="quran edit 17-2" transform="translate(993.002 105.556)">
      <g id="Group_1691" data-name="Group 1691" transform="translate(4.998 11.727)">
        <path id="Path_9582" data-name="Path 9582" d="M18.39,18.813a28.414,28.414,0,0,0,6.855,1.234,14.964,14.964,0,0,1,3.677.592.725.725,0,0,0,.228.042.634.634,0,0,0,.228-1.226,16.116,16.116,0,0,0-4.023-.676A27.418,27.418,0,0,1,18.788,17.6a.637.637,0,0,0-.8.4A.65.65,0,0,0,18.39,18.813Z" transform="translate(-7.003 -12.632)" fill="#ab1f57"/>
        <path id="Path_9583" data-name="Path 9583" d="M30.582,33.306c-2.671-1.361-5.688-1.623-8.351-1.868a26.076,26.076,0,0,1-8.824-1.868.634.634,0,0,0-.516,1.158,27.349,27.349,0,0,0,9.23,1.978c2.671.237,5.435.482,7.886,1.733a.576.576,0,0,0,.287.068.634.634,0,0,0,.287-1.2Z" transform="translate(-6.161 -14.48)" fill="#ab1f57"/>
        <path id="Path_9584" data-name="Path 9584" d="M30.741,29.8A28.448,28.448,0,0,0,22.7,28.243a23.575,23.575,0,0,1-7.886-1.623.634.634,0,1,0-.516,1.158,24.581,24.581,0,0,0,8.3,1.733,27.068,27.068,0,0,1,7.675,1.471.546.546,0,0,0,.228.042.636.636,0,0,0,.592-.406.625.625,0,0,0-.355-.82Z" transform="translate(-6.379 -14.023)" fill="#ab1f57"/>
        <path id="Path_9585" data-name="Path 9585" d="M15.4,23.941a.631.631,0,0,0,.321.837,22.159,22.159,0,0,0,7.362,1.488,32.636,32.636,0,0,1,7.455,1.285.555.555,0,0,0,.194.034.624.624,0,0,0,.6-.44.641.641,0,0,0-.406-.8A33.889,33.889,0,0,0,23.184,25a21.026,21.026,0,0,1-6.948-1.378.634.634,0,0,0-.837.321Z" transform="translate(-6.599 -13.559)" fill="#ab1f57"/>
        <path id="Path_9586" data-name="Path 9586" d="M17.142,21.749a19.75,19.75,0,0,0,6.415,1.243,38.139,38.139,0,0,1,7.227,1.15.643.643,0,0,0,.177.025.624.624,0,0,0,.609-.456.642.642,0,0,0-.44-.786,38.7,38.7,0,0,0-7.463-1.192,18.812,18.812,0,0,1-6-1.133.631.631,0,0,0-.837.321.614.614,0,0,0,.313.828Z" transform="translate(-6.819 -13.092)" fill="#ab1f57"/>
        <path id="Path_9587" data-name="Path 9587" d="M42.672,20.682a.725.725,0,0,0,.228-.042,14.964,14.964,0,0,1,3.677-.592,28.414,28.414,0,0,0,6.855-1.234.633.633,0,1,0-.406-1.2,27.418,27.418,0,0,1-6.568,1.175,15.735,15.735,0,0,0-4.023.676.63.63,0,0,0-.363.82.662.662,0,0,0,.6.4Z" transform="translate(-10.729 -12.633)" fill="#ab1f57"/>
        <path id="Path_9588" data-name="Path 9588" d="M40.046,33.306a.634.634,0,0,0,.287,1.2.713.713,0,0,0,.287-.068,21.3,21.3,0,0,1,7.886-1.733,27.147,27.147,0,0,0,9.23-1.978.634.634,0,1,0-.516-1.158A26.076,26.076,0,0,1,48.4,31.438c-2.663.245-5.68.516-8.351,1.868Z" transform="translate(-10.368 -14.48)" fill="#ab1f57"/>
        <path id="Path_9589" data-name="Path 9589" d="M40.333,31.023a.725.725,0,0,0,.228-.042,27.365,27.365,0,0,1,7.683-1.471,24.374,24.374,0,0,0,8.292-1.733.634.634,0,1,0-.516-1.158,23.538,23.538,0,0,1-7.895,1.623,28.423,28.423,0,0,0-8.03,1.547.623.623,0,0,0-.355.82.632.632,0,0,0,.592.414Z" transform="translate(-10.367 -14.023)" fill="#ab1f57"/>
        <path id="Path_9590" data-name="Path 9590" d="M40.334,27.584a.5.5,0,0,0,.194-.034,32.626,32.626,0,0,1,7.463-1.285,21.943,21.943,0,0,0,7.354-1.488.634.634,0,1,0-.516-1.158A20.989,20.989,0,0,1,47.874,25a33.9,33.9,0,0,0-7.734,1.344.638.638,0,0,0-.406.8A.624.624,0,0,0,40.334,27.584Z" transform="translate(-10.369 -13.559)" fill="#ab1f57"/>
        <path id="Path_9591" data-name="Path 9591" d="M40.336,24.165a.643.643,0,0,0,.177-.025,38.139,38.139,0,0,1,7.227-1.15,19.529,19.529,0,0,0,6.415-1.243.634.634,0,1,0-.516-1.158,18.907,18.907,0,0,1-6,1.133,38.8,38.8,0,0,0-7.463,1.192.638.638,0,0,0-.44.786A.615.615,0,0,0,40.336,24.165Z" transform="translate(-10.37 -13.09)" fill="#ab1f57"/>
        <path id="Path_9592" data-name="Path 9592" d="M58.951,28.753l-6.01-16.076a1.431,1.431,0,0,0-1.936-.837s-1.479.617-1.5.625c-3.2,1.986-6.3,2.265-9.036,2.51-3.449.3-6.458.592-8.427,4.032-1.969-3.44-4.987-3.728-8.427-4.032-2.739-.245-5.832-.524-9.036-2.51-.017-.008-1.5-.625-1.5-.625a1.625,1.625,0,0,0-1.936.837L5.143,28.753a2.306,2.306,0,0,0,1.268,2.933l6.66,2.772-.82.423a1.466,1.466,0,0,0-.778,1.065l-2.5,15.265v.008l-.279,1.716a1.3,1.3,0,0,0,1.285,1.5,1.426,1.426,0,0,0,.423-.068c.423-.144.871-.3,1.1-.389A28.139,28.139,0,0,0,20.518,48.6c.321-.27.642-.533.98-.8,2.984-2.4,4.784-3.854,8.047-3.668H34.6c3.229-.178,5.029,1.268,8.013,3.668.33.262.651.533.98.8a27.986,27.986,0,0,0,9.019,5.384c.237.085.676.245,1.1.389a1.3,1.3,0,0,0,1.707-1.437l-.279-1.716v-.008l-2.5-15.265a1.466,1.466,0,0,0-.778-1.065l-.828-.423,6.66-2.772A2.31,2.31,0,0,0,58.951,28.753ZM40.593,16.243a20.613,20.613,0,0,0,8.926-2.308l5.443,14.555c-4.142,2.434-8.14,2.789-11.673,3.1-4.26.38-8.03.718-10.608,4.514V20.554C34.313,16.8,36.95,16.564,40.593,16.243Zm-9.179,4.311V36.106c-2.578-3.8-6.339-4.133-10.608-4.514-3.533-.313-7.531-.676-11.673-3.1l5.443-14.555A20.854,20.854,0,0,0,23.5,16.243C27.145,16.564,29.782,16.8,31.413,20.554Zm-18.688,15.6a.191.191,0,0,1,.11-.144L14.61,35.1l12.831,5.35c-3.356.44-5.688,2.308-8.309,4.421A32.548,32.548,0,0,1,10.4,50.349ZM53.052,52.808A26.585,26.585,0,0,1,44.4,47.627c-.33-.27-.651-.541-.989-.811-3-2.417-5.173-4.167-8.85-3.947H29.579c-3.7-.211-5.883,1.53-8.883,3.947-.338.27-.659.541-.989.811a26.585,26.585,0,0,1-8.655,5.181,8.677,8.677,0,0,1-1.107.338l.22-1.361a32.724,32.724,0,0,0,9.763-5.925c3.068-2.477,5.511-4.429,9.627-4.226a6.383,6.383,0,0,0,4.987,0c4.133-.211,6.559,1.75,9.627,4.226a32.67,32.67,0,0,0,9.754,5.925l.186,1.4c-.406-.152-.837-.3-1.057-.38ZM51.268,36a.181.181,0,0,1,.1.144L53.694,50.34a32.34,32.34,0,0,1-8.731-5.477c-2.62-2.113-4.953-3.99-8.317-4.421l12.839-5.35Zm5.925-5.494L35.285,39.639a4.888,4.888,0,0,1-6.475,0L6.9,30.511a1.03,1.03,0,0,1-.566-1.319l6.01-16.076a.173.173,0,0,1,.11-.11.156.156,0,0,1,.152,0l.837.347L7.89,28.212a1.049,1.049,0,0,0,.431,1.268c4.446,2.671,8.664,3.043,12.374,3.373,4.962.44,8.545.761,10.76,6.018a.636.636,0,0,0,1.175,0c2.215-5.257,5.8-5.57,10.76-6.018,3.711-.33,7.92-.71,12.357-3.364a1.057,1.057,0,0,0,.448-1.276L50.643,13.352l.845-.347a.255.255,0,0,1,.161,0,.193.193,0,0,1,.11.11l6.01,16.076a1.05,1.05,0,0,1-.575,1.319Z" transform="translate(-4.998 -11.727)" fill="#ab1f57"/>
      </g>
    </g>
  </g>
</svg>
