<svg id="contact_us" data-name="contact us" xmlns="http://www.w3.org/2000/svg" width="40.622" height="40.623" viewBox="0 0 40.622 40.623">
  <g id="Communicate">
    <path id="Path_8474" data-name="Path 8474" d="M19.806,16.117l-3.351-3.351a.677.677,0,0,0-.957,0L14.061,14.2a2.031,2.031,0,0,1-2.873,0l-.164-.164a2.031,2.031,0,0,1,0-2.873L12.46,9.728a.677.677,0,0,0,0-.957L9.108,5.42a.677.677,0,0,0-.957,0L6.715,6.856a6.1,6.1,0,0,0,0,8.617L9.752,18.51a6.1,6.1,0,0,0,8.617,0l1.437-1.436A.677.677,0,0,0,19.806,16.117ZM15.976,14.2,18.37,16.6l-.479.479L15.5,14.68ZM8.63,6.856,11.024,9.25l-.479.479L8.151,7.335Zm2.079,10.7L7.672,14.517a4.747,4.747,0,0,1-.445-6.19l2.408,2.408A3.391,3.391,0,0,0,10.066,15l.164.164a3.393,3.393,0,0,0,4.261.431L16.9,18a4.748,4.748,0,0,1-6.19-.445Z" transform="translate(-2.947 -3.041)" fill="#fff"/>
    <path id="Path_8475" data-name="Path 8475" d="M18.926,22.311H4.031A2.031,2.031,0,0,1,2,20.28V4.031A2.031,2.031,0,0,1,4.031,2h14.9a2.031,2.031,0,0,1,2.031,2.031V20.28A2.031,2.031,0,0,1,18.926,22.311ZM4.031,3.354a.677.677,0,0,0-.677.677V20.28a.677.677,0,0,0,.677.677h14.9a.677.677,0,0,0,.677-.677V4.031a.677.677,0,0,0-.677-.677Z" transform="translate(-2 -2)" fill="#fff"/>
    <path id="Path_8476" data-name="Path 8476" d="M18.926,52.957H4.031A2.031,2.031,0,0,1,2,50.926v-14.9A2.031,2.031,0,0,1,4.031,34h14.9a2.031,2.031,0,0,1,2.031,2.031v14.9a2.031,2.031,0,0,1-2.031,2.031Zm-14.9-17.6a.677.677,0,0,0-.677.677v14.9a.677.677,0,0,0,.677.677h14.9a.677.677,0,0,0,.677-.677v-14.9a.677.677,0,0,0-.677-.677Z" transform="translate(-2 -12.335)" fill="#fff"/>
    <path id="Path_8477" data-name="Path 8477" d="M18.864,41H6.677A.677.677,0,0,0,6,41.677V49.8a.677.677,0,0,0,.677.677H18.864a.677.677,0,0,0,.677-.677V41.677A.677.677,0,0,0,18.864,41ZM12.77,46.179,8.459,42.354h8.622Zm-2.528-.434L7.354,48.3V43.183Zm1.02.905.609.542a1.349,1.349,0,0,0,1.808,0l.609-.542,2.788,2.471H8.464Zm4.043-.905,2.882-2.562V48.3Z" transform="translate(-3.292 -14.595)" fill="#fff"/>
    <path id="Path_8478" data-name="Path 8478" d="M50.926,2h-14.9A2.031,2.031,0,0,0,34,4.031V20.28a2.031,2.031,0,0,0,2.031,2.031h3.385V30.8l-.792-1.678A2.005,2.005,0,0,0,37.7,27.95a2.036,2.036,0,0,0-1.544-.2l-.624.168a1.354,1.354,0,0,0-.933,1.733l2.826,8.209a.669.669,0,0,0,.123.217L39.38,40.24l.037,1.72a.677.677,0,0,0,.677.663h9.479a.677.677,0,0,0,.677-.677V40.118l1.24-1.861a.681.681,0,0,0,.114-.374v-8.8a1.981,1.981,0,0,0-.592-1.427,2.07,2.07,0,0,0-2.187-.462A1.941,1.941,0,0,0,48.3,26.3a2.072,2.072,0,0,0-2.187-.462,1.941,1.941,0,0,0-.521-.892,2.067,2.067,0,0,0-2.116-.488V22.311h7.448a2.031,2.031,0,0,0,2.031-2.031V4.031A2.031,2.031,0,0,0,50.926,2Zm-6.77,23.7a.659.659,0,0,1,.482.207.648.648,0,0,1,.195.47v4.739a.677.677,0,0,0,1.354,0V27.728a.677.677,0,0,1,.677-.677.659.659,0,0,1,.482.207.648.648,0,0,1,.195.47v3.385a.677.677,0,1,0,1.354,0V29.082a.677.677,0,0,1,.677-.677.659.659,0,0,1,.482.207.648.648,0,0,1,.195.47v8.6l-1.24,1.861a.681.681,0,0,0-.114.374v1.354H40.756l-.028-1.3a.677.677,0,0,0-.16-.424l-1.908-2.252-2.779-8.075.619-.167a.689.689,0,0,1,.52.068.664.664,0,0,1,.313.406c.01.04,2.148,4.579,2.148,4.579a.677.677,0,0,0,1.289-.282V20.356a.733.733,0,0,1,.614-.753.659.659,0,0,1,.545.2.648.648,0,0,1,.195.474V31.113a.677.677,0,1,0,1.354,0V26.374A.677.677,0,0,1,44.156,25.7ZM51.6,20.28a.677.677,0,0,1-.677.677H43.479V20.28a1.981,1.981,0,0,0-.592-1.427,2.008,2.008,0,0,0-1.616-.6,2.083,2.083,0,0,0-1.854,2.1v.6H36.031a.677.677,0,0,1-.677-.677V4.031a.677.677,0,0,1,.677-.677h14.9a.677.677,0,0,1,.677.677Z" transform="translate(-12.335 -2)" fill="#fff"/>
    <path id="Path_8479" data-name="Path 8479" d="M45.416,8a5.416,5.416,0,1,0,0,10.833h2.708a.677.677,0,0,0,0-1.354H45.416a4.062,4.062,0,1,1,4.062-4.062v.677a.677.677,0,1,1-1.354,0v-.677a2.731,2.731,0,1,0-.871,1.977,2.022,2.022,0,0,0,3.579-1.3v-.677A5.422,5.422,0,0,0,45.416,8Zm0,6.77a1.354,1.354,0,1,1,1.354-1.354A1.354,1.354,0,0,1,45.416,14.77Z" transform="translate(-14.272 -3.938)" fill="#fff"/>
  </g>
</svg>
