<svg xmlns="http://www.w3.org/2000/svg" width="56.088" height="74.834" viewBox="0 0 56.088 74.834">
  <g id="qurann" transform="translate(-64.129 0)">
    <g id="Group_1646" data-name="Group 1646" transform="translate(64.129 0)">
      <path id="Path_9560" data-name="Path 9560" d="M116.778,2.343H81.629a1.1,1.1,0,1,0,0,2.192h35.149a1.248,1.248,0,0,1,1.247,1.247V71.395a1.248,1.248,0,0,1-1.247,1.247H71.008v-52.8a1.1,1.1,0,0,0-2.192,0v52.8H67.568a1.248,1.248,0,0,1-1.247-1.247V5.783a1.248,1.248,0,0,1,1.247-1.247h1.247v10.62a1.1,1.1,0,0,0,1.7.912l2.907-1.938,2.907,1.938a1.1,1.1,0,0,0,1.7-.912V2.268A2.27,2.27,0,0,0,75.77,0H71.083a2.27,2.27,0,0,0-2.268,2.268v.075H67.568a3.443,3.443,0,0,0-3.439,3.439V71.395a3.443,3.443,0,0,0,3.439,3.439h49.209a3.443,3.443,0,0,0,3.439-3.439V5.783a3.443,3.443,0,0,0-3.439-3.439ZM71.083,2.192H75.77a.075.075,0,0,1,.075.075v10.84L74.035,11.9a1.1,1.1,0,0,0-1.216,0l-1.811,1.207V2.268a.076.076,0,0,1,.075-.075Z" transform="translate(-64.129 0)" fill="#ab1f57"/>
      <path id="Path_9561" data-name="Path 9561" d="M133,63.328H130.45V60.91a1.1,1.1,0,1,0-2.192,0v49.209a1.1,1.1,0,0,0,1.1,1.1H169.19a1.1,1.1,0,0,0,1.1-1.1V49.193a1.1,1.1,0,0,0-1.1-1.1H136.384a1.1,1.1,0,1,0,0,2.192h7.105v2.545A11.66,11.66,0,0,0,133,63.328ZM130.45,95.984H133a11.661,11.661,0,0,0,10.494,10.494v2.545H130.451V95.984Zm24.6,13.039v-2.545a11.661,11.661,0,0,0,10.494-10.494h2.545v13.039Zm13.039-45.694h-2.545a11.661,11.661,0,0,0-10.494-10.494V50.289h13.039ZM152.863,50.289v3.59a1.1,1.1,0,0,0,1.1,1.1,9.459,9.459,0,0,1,9.449,9.449,1.1,1.1,0,0,0,1.1,1.1h3.59v28.27H164.5a1.1,1.1,0,0,0-1.1,1.1,9.459,9.459,0,0,1-9.449,9.449,1.1,1.1,0,0,0-1.1,1.1v3.59h-7.181v-3.59a1.1,1.1,0,0,0-1.1-1.1,9.459,9.459,0,0,1-9.449-9.449,1.1,1.1,0,0,0-1.1-1.1h-3.59V65.521h3.59a1.1,1.1,0,0,0,1.1-1.1,9.459,9.459,0,0,1,9.449-9.449,1.1,1.1,0,0,0,1.1-1.1v-3.59Z" transform="translate(-118.885 -41.067)" fill="#ab1f57"/>
      <path id="Path_9562" data-name="Path 9562" d="M192.387,196.012a11.641,11.641,0,1,0,11.641-11.641A11.654,11.654,0,0,0,192.387,196.012Zm11.641-9.449a9.449,9.449,0,1,1-9.449,9.449A9.459,9.459,0,0,1,204.028,186.563Z" transform="translate(-173.641 -157.423)" fill="#ab1f57"/>
      <path id="Path_9563" data-name="Path 9563" d="M224.961,225.951a1.1,1.1,0,0,0,2.042-.8,4.754,4.754,0,0,1,6.165-6.165,1.1,1.1,0,1,0,.8-2.042,6.946,6.946,0,0,0-9.006,9.005Z" transform="translate(-201.044 -184.827)" fill="#ab1f57"/>
      <path id="Path_9564" data-name="Path 9564" d="M251.414,249.563a1.1,1.1,0,1,0-.8,2.042,6.946,6.946,0,0,0,9.006-9.006,1.1,1.1,0,0,0-2.042.8,4.754,4.754,0,0,1-6.165,6.165Z" transform="translate(-222.763 -206.545)" fill="#ab1f57"/>
    </g>
  </g>
</svg>
