<svg id="svgexport-6_6_" data-name="svgexport-6 (6)" xmlns="http://www.w3.org/2000/svg" width="50.494" height="36.981" viewBox="0 0 50.494 36.981">
  <g id="_x34_79_x2C__Islam_x2C__Muslin_x2C__Quran_x2C__Book">
    <g id="Group_1575" data-name="Group 1575" transform="translate(0 0)">
      <path id="Path_9542" data-name="Path 9542" d="M79.989,133.321l-2.5-3.6a.548.548,0,0,0-.763-.137l-1.35.938-.938-1.35a5.476,5.476,0,0,0-7.625-1.375L54.84,136.113,42.867,127.8a5.476,5.476,0,0,0-7.625,1.375l-.938,1.35-1.35-.938a.548.548,0,0,0-.762.137l-2.5,3.6a.548.548,0,0,0,.118.748l19.275,14.713-6.557,4.554a.546.546,0,0,0-.156.166l-2.8,4.613a.548.548,0,0,0,.371.824l.268.048a1.19,1.19,0,0,1,.909,1.572l-.9,2.506a.548.548,0,0,0,.848.62L54.84,153.176l13.768,10.509a.548.548,0,0,0,.332.112h0a.548.548,0,0,0,.5-.778l-.88-2.46a1.19,1.19,0,0,1,.909-1.572l.268-.048a.548.548,0,0,0,.371-.824l-2.8-4.613a.548.548,0,0,0-.156-.166L60.6,148.782l19.276-14.713A.548.548,0,0,0,79.989,133.321ZM42.242,128.7l12.286,8.533a.548.548,0,0,0,.625,0L67.438,128.7a4.379,4.379,0,0,1,5.759.67L54.84,142.116l-18.357-12.75A4.381,4.381,0,0,1,42.242,128.7Zm-6.413,1.55,18.7,12.987a.548.548,0,0,0,.625,0l18.7-12.987.625.9L54.84,144.785,35.2,131.147Zm6.05,31.444.273-.762a2.287,2.287,0,0,0-1.261-2.875l2.357-3.883L50,149.481l3.938,3.006Zm26.91-3.637a2.286,2.286,0,0,0-1.261,2.875l.273.762L30.89,133.516l1.889-2.72,1.35.938,32.3,22.436Zm-9.139-9.927-3.85-2.674,19.751-13.718,1.35-.938,1.889,2.72Z" transform="translate(-29.593 -126.817)" fill="#fff"/>
    </g>
  </g>
</svg>
