<svg xmlns="http://www.w3.org/2000/svg" width="44.246" height="44.246" viewBox="0 0 44.246 44.246">
  <g id="Group_1848" data-name="Group 1848" transform="translate(-1.377)">
    <g id="books" transform="translate(1.377)">
      <path id="Path_9472" data-name="Path 9472" d="M22.123,0H12.536A.737.737,0,0,0,11.8.737V5.9H.737A.737.737,0,0,0,0,6.637V43.508a.737.737,0,0,0,.737.737H22.123a.737.737,0,0,0,.737-.737V.737A.737.737,0,0,0,22.123,0Zm-.737,38.346H13.274V36.871h8.112ZM1.475,11.061H11.8V33.184H1.475Zm19.911-2.95H13.274V5.9h8.112ZM1.475,34.659H11.8v2.212H1.475Zm11.8.737V9.587h8.112V35.4ZM21.385,1.475v2.95H13.274V1.475ZM11.8,7.374V9.587H1.475V7.374ZM1.475,38.346H11.8v4.425H1.475Zm11.8,4.425v-2.95h8.112v2.95Zm0,0" fill="#011132"/>
      <path id="Path_9473" data-name="Path 9473" d="M269.359,98.474,260.51,64.553a.737.737,0,0,0-.9-.526l-11.061,2.95a.737.737,0,0,0-.524.9l8.849,33.922a.735.735,0,0,0,.9.525l11.061-2.95A.737.737,0,0,0,269.359,98.474ZM250.809,72.716l9.637-2.569.347,1.327-9.636,2.573Zm10.356.189,4.277,16.406-9.633,2.57-4.277-16.407Zm4.652,17.834.755,2.894L256.935,96.2l-.752-2.893Zm-6.547-25.1.8,3.079-9.637,2.568-.8-3.077Zm-1.159,35.064-.8-3.079,9.637-2.57.8,3.077Zm0,0" transform="translate(-225.137 -58.102)" fill="#011132"/>
      <path id="Path_9474" data-name="Path 9474" d="M38.637,144h-5.9a.737.737,0,0,0-.737.737v5.9a.737.737,0,0,0,.737.737h5.9a.737.737,0,0,0,.737-.737v-5.9A.737.737,0,0,0,38.637,144Zm-.737,5.9H33.475v-4.425H37.9Zm0,0" transform="translate(-29.05 -130.726)" fill="#011132"/>
    </g>
  </g>
</svg>
