<svg xmlns="http://www.w3.org/2000/svg" width="44.146" height="42.717" viewBox="0 0 44.146 42.717">
  <g id="Group_1849" data-name="Group 1849" transform="translate(-673 -117.283)">
    <g id="العلوم_الأخرى" data-name="العلوم الأخرى" transform="translate(673.5 108.894)">
      <g id="Group_1692" data-name="Group 1692" transform="translate(-0.5 8.389)">
        <path id="Path_9597" data-name="Path 9597" d="M120,32h1.378v1.378H120Z" transform="translate(-109.622 -30.622)" fill="#011132"/>
        <path id="Path_9598" data-name="Path 9598" d="M376,168h1.378v1.378H376Z" transform="translate(-343.575 -154.909)" fill="#011132"/>
        <path id="Path_9599" data-name="Path 9599" d="M424,32h1.378v1.378H424Z" transform="translate(-387.441 -30.622)" fill="#011132"/>
        <path id="Path_9600" data-name="Path 9600" d="M0,189.7H1.378v1.378H0Z" transform="translate(0.043 -174.74)" fill="#011132"/>
        <path id="Path_9601" data-name="Path 9601" d="M232,464h1.378v1.378H232Z" transform="translate(-211.976 -425.417)" fill="#011132"/>
        <path id="Path_9602" data-name="Path 9602" d="M154.411,408a2.411,2.411,0,1,0,2.411,2.411A2.419,2.419,0,0,0,154.411,408Zm0,3.445a1.033,1.033,0,1,1,1.033-1.033A1.036,1.036,0,0,1,154.411,411.445Z" transform="translate(-138.866 -374.24)" fill="#011132"/>
        <path id="Path_9603" data-name="Path 9603" d="M26.411,20.823A2.411,2.411,0,1,0,24,18.411,2.419,2.419,0,0,0,26.411,20.823Zm0-3.445a1.033,1.033,0,1,1-1.033,1.033A1.037,1.037,0,0,1,26.411,17.378Z" transform="translate(-21.89 -16)" fill="#011132"/>
        <path id="Path_9606" data-name="Path 9606" d="M43.56,88.811l-4.745-9.5V71.9a.682.682,0,0,0-.284-.56.694.694,0,0,0-.62-.095l-1.163.388V70.519a.686.686,0,0,0-.586-.68,19.284,19.284,0,0,0-5.719,0,19.524,19.524,0,0,0-8.208,3.307,26.285,26.285,0,0,0-6.692-2.61A36.424,36.424,0,0,0,7.1,69.83a.692.692,0,0,0-.663.689v1.111L5.27,71.242a.694.694,0,0,0-.62.095.682.682,0,0,0-.284.56v7.415l-4.788,9.5a.637.637,0,0,0-.078.31v18.6H.878V89.448l8.164-6.735a4.779,4.779,0,0,1-.861,3.876L4.538,90a.684.684,0,0,0-.215.5v2.067a.691.691,0,0,0,.689.689,2.268,2.268,0,0,1,1.567.835c.818,1,1,2.808.517,5.228l1.352.267a13.5,13.5,0,0,0,.293-2.963c.4-.026.8-.034,1.2-.034.026,1.507-.207,5.391-3.066,6.347a.685.685,0,0,0-.474.655v4.134H7.776v-3.66a6.116,6.116,0,0,0,3.29-4.685,12.66,12.66,0,0,0,.25-2.721,20.877,20.877,0,0,1,8.121,2.463.172.172,0,0,1,.095.155v.87a.691.691,0,0,0,.689.689h4.134a.691.691,0,0,0,.689-.689v-.973a.2.2,0,0,1,.06-.138,12.128,12.128,0,0,1,6.743-2.541c-.034,1.783.241,6.106,3.522,7.57v3.66h1.378V103.59a.693.693,0,0,0-.474-.655c-2.868-.956-3.083-4.943-3.049-6.476.482.017.878.052,1.18.086a13.184,13.184,0,0,0,.284,3.04l1.352-.267c-.482-2.4-.31-4.2.5-5.21a2.3,2.3,0,0,1,1.585-.861.691.691,0,0,0,.689-.689V90.49a.684.684,0,0,0-.215-.5l-3.634-3.4a4.746,4.746,0,0,1-.861-3.876l8.164,6.735v18.275h1.378v-18.6A.757.757,0,0,0,43.56,88.811ZM40.882,86.52l-2.067-1.705V82.386ZM37.437,72.852V83.687l-.689-.568V73.085Zm-31,.233v10l-.689.568v-10.8Zm-2.067,11.7L2.282,86.512l2.084-4.134Zm4.8,2.765a.7.7,0,0,0,.078-.086A6.142,6.142,0,0,0,10,81.232a.677.677,0,0,0-.474-.362.664.664,0,0,0-.577.146l-1.137.93V71.19a33.906,33.906,0,0,1,7.415.689,24.947,24.947,0,0,1,6.364,2.489V95.537a26.019,26.019,0,0,0-6.037-2.256,35.564,35.564,0,0,0-7.742-.723V88.828ZM5.7,90.8l.732-.68v2.136A4.394,4.394,0,0,0,5.7,91.98Zm18.542,7.157a1.547,1.547,0,0,0-.586,1.214v.284H20.9v-.189a1.542,1.542,0,0,0-.81-1.361A21.7,21.7,0,0,0,8.577,95.262a5.129,5.129,0,0,0-.465-1.326,33.638,33.638,0,0,1,7.114.689A24.964,24.964,0,0,1,21.935,97.3a.674.674,0,0,0,.689,0,.154.154,0,0,0,.06-.043,18.15,18.15,0,0,1,7.966-3.316,17.7,17.7,0,0,1,4.427-.112,4.94,4.94,0,0,0-.5,1.352,13.888,13.888,0,0,0-10.335,2.773ZM37.437,91.98a3.567,3.567,0,0,0-.689.25V90.155l.689.646ZM33.613,80.87a.7.7,0,0,0-.474.362,6.14,6.14,0,0,0,.758,6.235.776.776,0,0,0,.078.086l1.4,1.309v3.609a18.863,18.863,0,0,0-4.926.1A19.391,19.391,0,0,0,22.968,95.4V74.317a17.749,17.749,0,0,1,12.4-3.2v10.86l-1.18-.973a.7.7,0,0,0-.577-.138Z" transform="translate(0.5 -65.007)" fill="#011132"/>
        <path id="Path_9607" data-name="Path 9607" d="M128.2,138.449l.68-1.2A17.172,17.172,0,0,0,118.8,135.1l.2,1.361A16.113,16.113,0,0,1,128.2,138.449Z" transform="translate(-108.526 -124.764)" fill="#011132"/>
        <path id="Path_9608" data-name="Path 9608" d="M128.2,178.449l.68-1.2A17.172,17.172,0,0,0,118.8,175.1l.2,1.361A16.113,16.113,0,0,1,128.2,178.449Z" transform="translate(-108.526 -161.319)" fill="#011132"/>
        <path id="Path_9609" data-name="Path 9609" d="M284,297.339l.68,1.2a15.974,15.974,0,0,1,9.207-1.981l.2-1.361A16.976,16.976,0,0,0,284,297.339Z" transform="translate(-259.498 -271.063)" fill="#011132"/>
        <path id="Path_9610" data-name="Path 9610" d="M284,130.2l.68,1.2a15.975,15.975,0,0,1,9.207-1.981l.2-1.361A17.128,17.128,0,0,0,284,130.2Z" transform="translate(-259.498 -118.323)" fill="#011132"/>
      </g>
    </g>
  </g>
</svg>
