<svg xmlns="http://www.w3.org/2000/svg" width="40.131" height="42.906" viewBox="0 0 40.131 42.906">
  <g id="Group_1846" data-name="Group 1846" transform="translate(-304 -117.094)">
    <g id="المجالس" transform="translate(304 117.094)">
      <path id="Path_9593" data-name="Path 9593" d="M36.294,35.623H36v-.756A3.608,3.608,0,0,0,37.553,31.9V29.688s0-.008,0-.011v-.611a2.675,2.675,0,0,0-.085-.683,2.786,2.786,0,0,0-2.7-2.1H33.118A2.8,2.8,0,0,0,30.551,28a3.846,3.846,0,0,0-1.18-.187h-.3v-.756a3.605,3.605,0,0,0,1.558-2.968V21.253c0-.033,0-.066,0-.1a2.565,2.565,0,0,0-.254-1.067,2.785,2.785,0,0,0-2.524-1.615H26.2A2.785,2.785,0,0,0,23.419,21.1q0,.076,0,.155v.611s0,.008,0,.011v2.212a3.608,3.608,0,0,0,1.558,2.967v.757h-.3a3.837,3.837,0,0,0-1.21.2,2.8,2.8,0,0,0-2.571-1.725h-.669v-9.4h1.115A1.367,1.367,0,0,0,22.7,15.518v-.752A1.367,1.367,0,0,0,21.338,13.4h-.9L21.565,9.68a.633.633,0,0,0-.126-.6L18.7,5.9a.633.633,0,0,0-.961.826l2.512,2.923L19.119,13.4h-.094V11.731a3.477,3.477,0,0,0-3.472-3.473h-.063v-.58A3.265,3.265,0,0,0,16.835,5.04V4.47s0-.006,0-.009V2a2.006,2.006,0,0,0-2-2h-2.52a2.007,2.007,0,0,0-2,2V5.039a3.252,3.252,0,0,0,1.409,2.684v.535h-.3A3.477,3.477,0,0,0,7.94,11.731V13.4H5.589a1.367,1.367,0,0,0-1.365,1.366v.752a1.367,1.367,0,0,0,1.365,1.365H6.705v9.4H5.358a2.786,2.786,0,0,0-2.75,2.364,2.718,2.718,0,0,0-.031.417v.611s0,.008,0,.011V31.9a3.607,3.607,0,0,0,1.558,2.967v.756h-.3A3.841,3.841,0,0,0,0,39.461v2.03a1.417,1.417,0,0,0,1.416,1.415h37.3a1.417,1.417,0,0,0,1.416-1.415v-2.03a3.841,3.841,0,0,0-3.836-3.837Zm-3.132-1.1a.634.634,0,0,0-.331-.559,2.34,2.34,0,0,1-1.153-1.479,3.6,3.6,0,0,0,4.534,0A2.346,2.346,0,0,1,35.06,33.96a.633.633,0,0,0-.331.56v1.737a.191.191,0,0,1-.19.19H33.352a.191.191,0,0,1-.19-.19ZM31.6,29.065c0-.046,0-.094.007-.141a1.522,1.522,0,0,1,1.507-1.373h1.654a1.516,1.516,0,0,1,1.515,1.514v.623a2.341,2.341,0,0,1-4.683-.011Zm-5.365-2.358s0-.005,0-.008a.444.444,0,0,0-.009-.1.633.633,0,0,0-.322-.454,2.346,2.346,0,0,1-1.152-1.478,3.6,3.6,0,0,0,4.534,0,2.342,2.342,0,0,1-1.153,1.479.634.634,0,0,0-.332.559v1.738a.19.19,0,0,1-.19.19H26.429a.19.19,0,0,1-.19-.19Zm-1.558-5.454A1.516,1.516,0,0,1,26.2,19.739h1.654a1.516,1.516,0,0,1,1.514,1.506s0,.006,0,.009v.611a2.341,2.341,0,0,1-4.683.011ZM21.18,33.96a.635.635,0,0,0-.331.56v1.737a.19.19,0,0,1-.19.19H19.471a.191.191,0,0,1-.19-.19V34.52a.633.633,0,0,0-.331-.56A2.346,2.346,0,0,1,17.8,32.481a3.6,3.6,0,0,0,4.534,0A2.345,2.345,0,0,1,21.18,33.96Zm-3.464,1.663a3.841,3.841,0,0,0-3.836,3.837v2.03a1.4,1.4,0,0,0,.008.149H12.362a1.4,1.4,0,0,0,.008-.149v-2.03a3.836,3.836,0,0,0-3.837-3.837h-.3v-.756A3.6,3.6,0,0,0,9.793,31.9V29.351a2.551,2.551,0,0,1,1.148-.272h.445a1.457,1.457,0,0,0,1.31.824h1.188a1.458,1.458,0,0,0,1.31-.824h.445a2.547,2.547,0,0,1,.818.134V31.9a3.608,3.608,0,0,0,1.558,2.967v.756ZM5.4,34.52a.633.633,0,0,0-.331-.56,2.345,2.345,0,0,1-1.152-1.479,3.6,3.6,0,0,0,4.534,0A2.342,2.342,0,0,1,7.3,33.96a.634.634,0,0,0-.331.559v1.738a.189.189,0,0,1-.18.19h-1.2a.19.19,0,0,1-.19-.19ZM3.844,29.065a1.516,1.516,0,0,1,1.515-1.514H7.012a1.594,1.594,0,0,1,.231.017,1.513,1.513,0,0,1,1.282,1.44c0,.019,0,.038,0,.057v.611a2.341,2.341,0,0,1-4.682.011Zm7.105-7.812c0-.049,0-.1.007-.146V21.1a1.517,1.517,0,0,1,1.506-1.357h1.654a1.516,1.516,0,0,1,1.515,1.514h0v.611a2.341,2.341,0,1,1-4.683,0v-.611Zm2.341,4.22a3.592,3.592,0,0,0,2.267-.8A2.345,2.345,0,0,1,14.4,26.148a.633.633,0,0,0-.331.559v1.738a.191.191,0,0,1-.19.19H12.7a.191.191,0,0,1-.19-.19V26.708a.633.633,0,0,0-.331-.559,2.345,2.345,0,0,1-1.152-1.479A3.592,3.592,0,0,0,13.29,25.473Zm6.775,6.545a2.344,2.344,0,0,1-2.341-2.341v-.611c0-.029,0-.059,0-.089,0,0,0-.009,0-.013,0-.027,0-.055.008-.084a.007.007,0,0,1,0,0,1.514,1.514,0,0,1,1.5-1.326h1.654a1.52,1.52,0,0,1,1.51,1.394c0,.02,0,.04,0,.058s0,.041,0,.062h0v.611a2.344,2.344,0,0,1-2.341,2.341ZM12.984,8.883c0-.008,0-.016,0-.024V8.25a3.286,3.286,0,0,0,1.239-.012v.646a.619.619,0,0,1-1.237,0Zm1.973-6.421A.633.633,0,0,0,13.7,2.457H12.312a1.991,1.991,0,0,0-.737.14V2a.738.738,0,0,1,.737-.737h2.52A.737.737,0,0,1,15.568,2V2.6a2,2,0,0,0-.611-.134ZM11.575,4.468s0,0,0-.007a.738.738,0,0,1,.737-.737h2.52a.738.738,0,0,1,.737.728v.588a2,2,0,0,1-1.021,1.742h0a2,2,0,0,1-1.9.026h0a1.992,1.992,0,0,1-1.07-1.769ZM9.207,11.732a2.208,2.208,0,0,1,2.205-2.206h.422a1.884,1.884,0,0,0,3.537,0h.18a2.209,2.209,0,0,1,2.206,2.206V13.4h-1.35V12.7a.634.634,0,0,0-1.267,0V13.4H11.858V12.7a.633.633,0,1,0-1.267,0V13.4H9.207Zm-.4,5.152a.633.633,0,1,0,0-1.267H5.589a.1.1,0,0,1-.1-.1v-.752a.1.1,0,0,1,.1-.1H21.338a.1.1,0,0,1,.1.1v.752a.1.1,0,0,1-.1.1H19.732a.64.64,0,0,0-.143-.017.622.622,0,0,0-.143.017H11.861a.633.633,0,1,0,0,1.267h7.095V26.3a2.786,2.786,0,0,0-2.27,1.66,3.855,3.855,0,0,0-1.047-.147h-.3v-.757A3.608,3.608,0,0,0,16.9,24.088V21.253h0a2.553,2.553,0,0,0-.759-1.906,2.773,2.773,0,0,0-2.022-.874H12.463a2.785,2.785,0,0,0-2.781,2.781v2.834a3.609,3.609,0,0,0,1.558,2.967v.757h-.3a3.824,3.824,0,0,0-1.339.241,2.785,2.785,0,0,0-1.63-1.6V16.884Zm.6,24.755V40.558a.634.634,0,0,0-1.267,0v1.081H4.265V40.558a.633.633,0,1,0-1.267,0v1.081H1.415a.149.149,0,0,1-.149-.149v-2.03a2.573,2.573,0,0,1,2.569-2.57h.445a1.457,1.457,0,0,0,1.31.824H6.814a1.447,1.447,0,0,0,1.277-.823h.442a2.57,2.57,0,0,1,2.57,2.57v2.03a.149.149,0,0,1-.15.149Zm13.88,0V40.558a.634.634,0,0,0-1.267,0v1.081H18.145V40.558a.633.633,0,1,0-1.267,0v1.081H15.3a.149.149,0,0,1-.15-.149v-2.03a2.573,2.573,0,0,1,2.569-2.57h.445a1.458,1.458,0,0,0,1.31.824h1.188a1.458,1.458,0,0,0,1.31-.824h.445a2.573,2.573,0,0,1,2.569,2.57.633.633,0,1,0,1.267,0,3.841,3.841,0,0,0-3.836-3.837h-.3v-.756A3.608,3.608,0,0,0,23.673,31.9V29.281a2.568,2.568,0,0,1,1-.2h.445a1.458,1.458,0,0,0,1.31.824h1.187a1.457,1.457,0,0,0,1.31-.824h.445a2.572,2.572,0,0,1,.966.189V31.9A3.605,3.605,0,0,0,31.9,34.868v.756h-.3a3.842,3.842,0,0,0-3.837,3.837v2.03a1.394,1.394,0,0,0,.008.149H23.29Zm15.573-.149a.149.149,0,0,1-.149.149H37.171V40.558a.634.634,0,0,0-1.267,0v1.081H32.026V40.558a.633.633,0,1,0-1.267,0v1.081H29.176a.149.149,0,0,1-.149-.149v-2.03a2.573,2.573,0,0,1,2.57-2.57h.445a1.458,1.458,0,0,0,1.31.824h1.187a1.458,1.458,0,0,0,1.31-.824h.445a2.573,2.573,0,0,1,2.569,2.57v2.03Zm0,0" fill="#011132"/>
      <path id="Path_9594" data-name="Path 9594" d="M300.966,12.711H287.924a1.547,1.547,0,0,0-1.545,1.545v5.55a1.547,1.547,0,0,0,1.545,1.545h.566v1.024a.826.826,0,0,0,1.41.584l1.608-1.608h1.851a.634.634,0,1,0,0-1.267h-1.87a1.212,1.212,0,0,0-.863.357l-.869.869V21.3a1.221,1.221,0,0,0-1.22-1.22h-.613a.279.279,0,0,1-.278-.278v-5.55a.279.279,0,0,1,.278-.278h13.042a.279.279,0,0,1,.279.278v5.55a.279.279,0,0,1-.278.278h-4.64a.633.633,0,1,0,0,1.267h4.64a1.547,1.547,0,0,0,1.545-1.545v-5.55a1.547,1.547,0,0,0-1.545-1.545Zm0,0" transform="translate(-262.38 -11.646)" fill="#011132"/>
      <path id="Path_9595" data-name="Path 9595" d="M319.516,43.248h9.418a.634.634,0,0,0,0-1.267h-9.418a.634.634,0,0,0,0,1.267Zm0,0" transform="translate(-292.16 -38.462)" fill="#011132"/>
      <path id="Path_9596" data-name="Path 9596" d="M319.516,71.228h4.512a.633.633,0,1,0,0-1.267h-4.512a.633.633,0,1,0,0,1.267Zm0,0" transform="translate(-292.16 -64.098)" fill="#011132"/>
    </g>
  </g>
</svg>
