<svg xmlns="http://www.w3.org/2000/svg" width="74.834" height="74.834" viewBox="0 0 74.834 74.834">
  <g id="days_hadith" data-name="days hadith" transform="translate(-2.994 -2.994)">
    <g id="Muhammad" transform="translate(2.994 2.994)">
      <path id="Path_9544" data-name="Path 9544" d="M67.243,29.292V14.87a1.29,1.29,0,0,0-1.29-1.29H51.531l-10.2-10.2a1.29,1.29,0,0,0-1.832,0l-10.2,10.2H14.87a1.29,1.29,0,0,0-1.29,1.29V29.292L3.376,39.5a1.29,1.29,0,0,0,0,1.832l10.2,10.2V65.953a1.29,1.29,0,0,0,1.29,1.29H29.292l10.2,10.2a1.29,1.29,0,0,0,1.832,0l10.2-10.2H65.953a1.29,1.29,0,0,0,1.29-1.29V51.531l10.2-10.2a1.29,1.29,0,0,0,0-1.832ZM40.411,66.056A25.645,25.645,0,1,1,66.056,40.411,25.645,25.645,0,0,1,40.411,66.056Zm24.252-39.99a28.534,28.534,0,0,0-9.881-9.881h9.881ZM40.411,6.111,47.39,13.1a27.09,27.09,0,0,0-13.958,0ZM26.041,16.16a28.535,28.535,0,0,0-9.881,9.881V16.16Zm-12.9,17.273a27.09,27.09,0,0,0,0,13.958l-7.03-6.979ZM16.16,54.782a28.535,28.535,0,0,0,9.881,9.881H16.16Zm24.252,19.93L33.432,67.72a27.09,27.09,0,0,0,13.958,0Zm14.37-10.049a28.535,28.535,0,0,0,9.881-9.881v9.881Zm12.9-17.273a27.09,27.09,0,0,0,0-13.958l7.03,6.979Z" transform="translate(-2.994 -2.994)" fill="#ab1f57"/>
      <path id="Path_9545" data-name="Path 9545" d="M37.2,14.08A23.117,23.117,0,1,0,60.313,37.2,23.117,23.117,0,0,0,37.2,14.08Zm0,43.653A20.537,20.537,0,1,1,57.733,37.2,20.537,20.537,0,0,1,37.2,57.733Z" transform="translate(0.221 0.221)" fill="#ab1f57"/>
      <path id="Path_9546" data-name="Path 9546" d="M35.7,44.814a17.079,17.079,0,0,1-5.5,0,1.288,1.288,0,0,0-.426,2.541,19.646,19.646,0,0,0,6.347,0,1.288,1.288,0,1,0-.426-2.541Z" transform="translate(4.462 9.128)" fill="#ab1f57"/>
      <path id="Path_9547" data-name="Path 9547" d="M43.554,39.675a16.77,16.77,0,0,1-3.87,3.87,1.29,1.29,0,1,0,1.5,2.1,19.015,19.015,0,0,0,4.489-4.489,1.29,1.29,0,1,0-2.1-1.5Z" transform="translate(7.485 7.482)" fill="#ab1f57"/>
      <path id="Path_9548" data-name="Path 9548" d="M45.878,37.2h.206a1.29,1.29,0,0,0,1.29-1.084,19.647,19.647,0,0,0,0-6.347,1.307,1.307,0,0,0-2.58.426,17.325,17.325,0,0,1,0,5.5A1.29,1.29,0,0,0,45.878,37.2Z" transform="translate(9.121 4.452)" fill="#ab1f57"/>
      <path id="Path_9549" data-name="Path 9549" d="M20.913,26.388a1.29,1.29,0,0,0,1.058-.542,16.77,16.77,0,0,1,3.87-3.87,1.29,1.29,0,1,0-1.5-2.1,19.014,19.014,0,0,0-4.489,4.489,1.263,1.263,0,0,0,1.058,2.025Z" transform="translate(1.824 1.831)" fill="#ab1f57"/>
      <path id="Path_9550" data-name="Path 9550" d="M30.207,19.829a17.079,17.079,0,0,1,5.5,0h.219a1.294,1.294,0,1,0,.206-2.58,19.35,19.35,0,0,0-6.347,0,1.307,1.307,0,0,0,.426,2.58Z" transform="translate(4.462 1.063)" fill="#ab1f57"/>
      <path id="Path_9551" data-name="Path 9551" d="M18.761,28.724a1.29,1.29,0,0,0-1.483,1.058,19.647,19.647,0,0,0,0,6.347,1.29,1.29,0,0,0,1.29,1.084h.206a1.29,1.29,0,0,0,1.058-1.483,17.325,17.325,0,0,1,0-5.5,1.29,1.29,0,0,0-1.071-1.509Z" transform="translate(1.073 4.462)" fill="#ab1f57"/>
      <path id="Path_9552" data-name="Path 9552" d="M21.966,39.672a1.29,1.29,0,0,0-2.1,1.5,19.014,19.014,0,0,0,4.489,4.489,1.29,1.29,0,1,0,1.5-2.1,16.77,16.77,0,0,1-3.883-3.883Z" transform="translate(1.828 7.485)" fill="#ab1f57"/>
      <path id="Path_9553" data-name="Path 9553" d="M41.168,19.864a1.29,1.29,0,0,0-1.5,2.1,16.77,16.77,0,0,1,3.87,3.87,1.29,1.29,0,0,0,2.1-1.5,19.014,19.014,0,0,0-4.476-4.476Z" transform="translate(7.485 1.828)" fill="#ab1f57"/>
      <path id="Path_9554" data-name="Path 9554" d="M44.984,38.74a1.29,1.29,0,0,0-1.29-1.29c-1.612,0-2.206-1.006-3.109-2.8-.194-.387-.413-.813-.658-1.225h4.541a3.509,3.509,0,0,0,3.522-3.509V28.73a3.522,3.522,0,1,0-7.03,0v1.187a3.676,3.676,0,0,0,.142.929h-5.16a1.29,1.29,0,0,0,0,2.58c1.045,0,1.5.7,2.361,2.4a14.836,14.836,0,0,0,.9,1.625H37.166a3.522,3.522,0,0,0-6.889,0h-.8C29.233,32.393,26.189,31,26.047,31a1.295,1.295,0,1,0-1.006,2.386s1.638.864,1.845,4.076H23.17a1.29,1.29,0,0,0,0,2.58h7.108a3.509,3.509,0,0,0,6.889,0h6.527a1.29,1.29,0,0,0,1.29-1.3Zm-1.445-8.823V28.73a.942.942,0,1,1,1.87,0v1.187a.942.942,0,0,1-1.87,0Zm-9.817,10.32a.942.942,0,0,1-.942-.942V38.108a.942.942,0,0,1,1.87,0v1.187a.942.942,0,0,1-.929.98Z" transform="translate(2.482 3.386)" fill="#ab1f57"/>
    </g>
  </g>
</svg>
