<svg id="Component_6_47" data-name="Component 6 – 47" xmlns="http://www.w3.org/2000/svg" width="29.889" height="40.623" viewBox="0 0 29.889 40.623">
  <g id="home">
    <g id="layer1">
      <path id="path13165" d="M17.142,280.647a5.419,5.419,0,0,0-.231,10.555v1.335c-1.5,2.343-4.856,3.945-8.03,5.886-3.527,2.157-6.2,4.849-6.235,9.263a12.174,12.174,0,0,0,1.731,6.6.679.679,0,1,0,1.155-.714A10.653,10.653,0,0,1,4,307.685c.05-4.161,2.774-6.336,5.6-8.111s6.072-3.159,7.988-5.661c1.916,2.5,4.971,3.7,7.988,5.661,3.075,2,5.665,4.158,5.6,8.111-.055,3.234-1.009,6.147-3.592,8.149H4.681a2.049,2.049,0,0,0-2.035,2.042v2.712a.679.679,0,0,0,.677.682h28.53a.679.679,0,0,0,.682-.682v-2.712a2.054,2.054,0,0,0-2.04-2.042h-.881a11.721,11.721,0,0,0,2.919-8.149c-.058-4.69-2.992-7.224-6.235-9.263-3.149-1.979-6.523-3.541-8.027-5.882v-1.159a5.417,5.417,0,0,0,5.235-4,.687.687,0,0,0-1.048-.841,3.394,3.394,0,0,1-4.778-4.773.679.679,0,0,0-.536-1.117Zm-1.459,2.173a4.733,4.733,0,0,0,5.718,5.715,4.062,4.062,0,1,1-5.718-5.715Zm-11,34.373H30.494a.669.669,0,0,1,.682.683v2.035H4v-2.035a.664.664,0,0,1,.677-.683Z" transform="translate(-2.646 -280.647)" fill="#011132"/>
    </g>
  </g>
</svg>
