<svg xmlns="http://www.w3.org/2000/svg" width="60.206" height="74.834" viewBox="0 0 60.206 74.834">
  <g id="day_s_fatwa" data-name="day&apos;s fatwa" transform="translate(-50.062 0)">
    <g id="Group_1619" data-name="Group 1619" transform="translate(50.062 0.001)">
      <path id="Path_9555" data-name="Path 9555" d="M107.039,50.059V37.5a1.1,1.1,0,0,0-.347-.8,6.456,6.456,0,0,1,0-9.871,1.1,1.1,0,0,0,.347-.8v-2.5c0-6.1-3.665-11.769-9.8-15.167L83.865.962a7.6,7.6,0,0,0-7.4,0L63.1,8.362c-6.139,3.4-9.8,9.068-9.8,15.167v2.5a1.1,1.1,0,0,0,.347.8,6.456,6.456,0,0,1,0,9.871,1.1,1.1,0,0,0-.347.8v8.367a1.1,1.1,0,1,0,2.191,0V37.963a8.587,8.587,0,0,0,0-12.39V23.529c0-5.29,3.243-10.243,8.674-13.249l13.369-7.4a5.42,5.42,0,0,1,5.277,0l13.37,7.4c5.432,3.007,8.674,7.96,8.674,13.249v2.044a8.587,8.587,0,0,0,0,12.39V49.953H98.706V45.922a1.1,1.1,0,0,0-.321-.775l-2.872-2.872a1.1,1.1,0,1,0-1.55,1.55l2.551,2.551v3.577H88.7V39.839h7.812a3.464,3.464,0,0,0,3.46-3.461V23.646a1.961,1.961,0,0,0-.821-1.594V19.269a2.1,2.1,0,0,0-2.1-2.1H94.644V15.295a1.1,1.1,0,1,0-2.191,0v6.814a1.959,1.959,0,0,0-.746,1.537v6.477l-6.9-4.259a4.482,4.482,0,0,0,1.006-2.832V15.166A5.62,5.62,0,0,0,80.2,9.552H78.47a5.62,5.62,0,0,0-5.613,5.613v7.865a4.486,4.486,0,0,0,1.193,3.05l-4.582,2.772a11.09,11.09,0,0,0-5,9.283V49.953H54.225c-2.72,0-4.226,2.342-4.161,4.833a4.167,4.167,0,0,0,3.227,4.054V71.422A3.416,3.416,0,0,0,56.7,74.835h46.924a3.416,3.416,0,0,0,3.412-3.413V58.839a4.167,4.167,0,0,0,3.227-4.054C110.32,52.631,109.3,50.58,107.039,50.059ZM96.515,37.648H88.7V30.767L94.13,34.36a1.1,1.1,0,1,0,1.216-1.823L93.9,31.571v-7.7h3.885v12.5A1.27,1.27,0,0,1,96.515,37.648Zm.447-18.283v2.318H94.644V19.365ZM75.048,18.4h8.576v4.63a2.315,2.315,0,0,1-2.312,2.312H77.36a2.315,2.315,0,0,1-2.312-2.312Zm0-3.235a3.426,3.426,0,0,1,3.422-3.422H80.2a3.426,3.426,0,0,1,3.422,3.422v1.044H75.048Zm-8.386,22.97a8.9,8.9,0,0,1,4.013-7.453l5.241-3.148H78.53V35.27a1.1,1.1,0,1,0,2.191,0V27.535h2.6l3.192,1.831V49.952h-.057a7.643,7.643,0,0,0-12.578,0H72.739v-14.9a1.1,1.1,0,0,0-2.191,0v14.9H66.662V38.136ZM74.7,54.305a5.461,5.461,0,1,1,5.461,5.461A5.467,5.467,0,0,1,74.7,54.305Zm-22.448.48c-.078-1.27.459-2.641,1.969-2.641h18.6a7.7,7.7,0,0,0,.092,4.611H54.225A1.972,1.972,0,0,1,52.256,54.785Zm3.227,16.636V58.946h1.8l3.654,6.688.026,7.009H56.7A1.222,1.222,0,0,1,55.483,71.422Zm7.652-4.975h3.732l.015,6.2H63.158Zm5.939,6.2-.015-6.2H82.8a1.1,1.1,0,0,0,0-2.191H62.684l-2.9-5.309h14.3a7.641,7.641,0,0,0,12.158,0h14.3l-2.9,5.309H88.181a1.1,1.1,0,0,0,0,2.191h3.054l.033,6.2Zm24.387,0-.033-6.2h3.781l.05,6.2Zm10.167,0H99.45l-.056-7.015,3.651-6.682h1.8V71.422A1.222,1.222,0,0,1,103.627,72.643Zm4.447-17.858a1.972,1.972,0,0,1-1.969,1.969H87.413c.556-1.64.166-3.173.194-4.611h18.5c1.51,0,2.048,1.371,1.969,2.641Z" transform="translate(-50.062 -0.001)" fill="#011132"/>
      <path id="Path_9556" data-name="Path 9556" d="M240.471,366.388h2.7a1.1,1.1,0,0,0,0-2.191h-2.7a1.1,1.1,0,1,0,0,2.191Z" transform="translate(-211.716 -310.987)" fill="#011132"/>
    </g>
  </g>
</svg>
