<svg xmlns="http://www.w3.org/2000/svg" width="93.303" height="74.834" viewBox="0 0 93.303 74.834">
  <g id="كتاب" transform="translate(0)">
    <path id="Path_9565" data-name="Path 9565" d="M311.36,182.137H283.308a1.367,1.367,0,0,0,0,2.733H311.36a1.367,1.367,0,1,0,0-2.733Zm0,0" transform="translate(-230.562 -148.946)" fill="#011132"/>
    <path id="Path_9566" data-name="Path 9566" d="M311.36,222.328H283.308a1.367,1.367,0,0,0,0,2.733H311.36a1.367,1.367,0,1,0,0-2.733Zm0,0" transform="translate(-230.562 -181.813)" fill="#011132"/>
    <path id="Path_9567" data-name="Path 9567" d="M311.36,262.516H283.308a1.367,1.367,0,0,0,0,2.733H311.36a1.367,1.367,0,1,0,0-2.733Zm0,0" transform="translate(-230.562 -214.677)" fill="#011132"/>
    <path id="Path_9568" data-name="Path 9568" d="M311.36,302.707H283.308a1.367,1.367,0,0,0,0,2.733H311.36a1.367,1.367,0,1,0,0-2.733Zm0,0" transform="translate(-230.562 -247.544)" fill="#011132"/>
    <path id="Path_9569" data-name="Path 9569" d="M88.15,79.164a41.823,41.823,0,0,1,5.2-.333,32.621,32.621,0,0,1,18.415,5.205,1.367,1.367,0,1,0,1.536-2.261A35.371,35.371,0,0,0,93.352,76.1a44.68,44.68,0,0,0-5.542.354,1.367,1.367,0,0,0,.34,2.712Zm0,0" transform="translate(-70.83 -62.23)" fill="#011132"/>
    <path id="Path_9570" data-name="Path 9570" d="M88.15,128.351a41.824,41.824,0,0,1,5.2-.333,32.615,32.615,0,0,1,18.415,5.205,1.367,1.367,0,1,0,1.536-2.261,35.365,35.365,0,0,0-19.952-5.678,44.677,44.677,0,0,0-5.542.354,1.367,1.367,0,0,0,.34,2.713Zm0,0" transform="translate(-70.83 -102.454)" fill="#011132"/>
    <path id="Path_9571" data-name="Path 9571" d="M112.534,182.647a1.367,1.367,0,0,0,.77-2.5,35.367,35.367,0,0,0-19.952-5.678,44.669,44.669,0,0,0-5.542.354,1.367,1.367,0,1,0,.34,2.712,41.954,41.954,0,0,1,5.2-.332,32.615,32.615,0,0,1,18.415,5.205,1.355,1.355,0,0,0,.767.236Zm0,0" transform="translate(-70.83 -142.678)" fill="#011132"/>
    <path id="Path_9572" data-name="Path 9572" d="M155.173,230.213a34.436,34.436,0,0,0-15.857-5.476,1.367,1.367,0,0,0-.272,2.72,31.667,31.667,0,0,1,14.593,5.016,1.367,1.367,0,1,0,1.536-2.261Zm0,0" transform="translate(-112.699 -183.777)" fill="#011132"/>
    <path id="Path_9573" data-name="Path 9573" d="M90.869,224.047c-1.006.058-2.035.152-3.06.281a1.367,1.367,0,0,0,.168,2.723,1.409,1.409,0,0,0,.172-.011c.964-.121,1.932-.21,2.877-.265a1.367,1.367,0,1,0-.158-2.729Zm0,0" transform="translate(-70.829 -183.216)" fill="#011132"/>
    <path id="Path_9574" data-name="Path 9574" d="M310.763,90.762H283.9a1.965,1.965,0,0,0-1.963,1.963v7.258a1.965,1.965,0,0,0,1.963,1.963h3.7a1.367,1.367,0,1,0,0-2.733h-2.934V93.5h25.319v5.717H293.968a1.367,1.367,0,1,0,0,2.733h16.8a1.965,1.965,0,0,0,1.963-1.963V92.725a1.965,1.965,0,0,0-1.963-1.963Zm0,0" transform="translate(-230.562 -74.222)" fill="#011132"/>
    <path id="Path_9575" data-name="Path 9575" d="M91.086,15.627H88.259V10.639a2.691,2.691,0,0,0-2.688-2.688H47.16a33.215,33.215,0,0,0-8.682-4.971A45.224,45.224,0,0,0,12.931.929a2.583,2.583,0,0,0-2.094,2.533V7.951H7.193A2.152,2.152,0,0,0,5.044,10.1v5.526H2.216A2.219,2.219,0,0,0,0,17.843V70.9A2.22,2.22,0,0,0,2.216,73.12H38.574a.761.761,0,0,1,.609.306,3.51,3.51,0,0,0,2.8,1.408h9.331a3.511,3.511,0,0,0,2.8-1.408.764.764,0,0,1,.609-.306H91.086A2.22,2.22,0,0,0,93.3,70.9V17.843a2.219,2.219,0,0,0-2.217-2.217ZM48.018,10.685H85.525V65.622H48.018ZM13.571,3.59A42.522,42.522,0,0,1,37.336,5.468a31.278,31.278,0,0,1,7.948,4.483V64.228A40.419,40.419,0,0,0,22.55,57.662a50.683,50.683,0,0,0-8.978.822ZM7.778,10.685h3.06V58.671a2.575,2.575,0,0,0,3.037,2.536,42.406,42.406,0,0,1,23.539,1.965,34.751,34.751,0,0,1,4.974,2.449H7.777Zm82.792,59.7H54.729a3.51,3.51,0,0,0-2.8,1.407.762.762,0,0,1-.609.307H41.986a.763.763,0,0,1-.609-.306,3.509,3.509,0,0,0-2.8-1.408H2.733V18.36H5.044V66.207a2.152,2.152,0,0,0,2.149,2.149H85.571a2.691,2.691,0,0,0,2.688-2.689V18.36h2.311Zm0,0" transform="translate(0 0)" fill="#011132"/>
  </g>
</svg>
