<svg xmlns="http://www.w3.org/2000/svg" width="31.392" height="42.812" viewBox="0 0 31.392 42.812">
  <g id="Group_1857" data-name="Group 1857" transform="translate(-16)">
    <g id="shaikh" transform="translate(16)">
      <g id="layer1">
        <path id="path12961" d="M25.413,291.3a.73.73,0,0,0,.778-.716v-2.139a7.845,7.845,0,0,0-7.847-7.847h0a7.846,7.846,0,0,0-7.849,7.847v2.139a.73.73,0,0,0,.775.716,2.24,2.24,0,0,0-2.2,2.136,3.47,3.47,0,0,0,3,3.531,6.408,6.408,0,0,0,2.063,3.452v3.722a.724.724,0,0,0,.032.206,3.919,3.919,0,0,0,2.037,2.206v7.58a.715.715,0,0,0,.212.506l1.427,1.421a.714.714,0,0,0,1.012,0l1.427-1.421a.713.713,0,0,0,.2-.506v-5a.714.714,0,1,0-1.427,0v4.7l-.711.712-.716-.712v-6.889a5.858,5.858,0,0,0,.716.048,4.113,4.113,0,0,0,4.177-2.649.709.709,0,0,0,.032-.19l.068-3.8a6.361,6.361,0,0,0,1.99-3.382,3.5,3.5,0,0,0,3.009-3.542,2.23,2.23,0,0,0-2.206-2.136Zm-7.07-9.276a6.39,6.39,0,0,1,6.42,6.42v1.428H11.923v-1.428a6.39,6.39,0,0,1,6.42-6.42ZM13.35,291.3h9.987v4.283a4.993,4.993,0,0,1-9.987,0Zm-1.427,1.677v2.5a2.01,2.01,0,0,1-1.423-2.012A.836.836,0,0,1,11.923,292.976Zm14.262.488a1.985,1.985,0,0,1-1.421,2.012v-2.5A.832.832,0,0,1,26.185,293.463Zm-5.01,7.874-.046,2.64a2.775,2.775,0,0,1-2.786,1.59,2.778,2.778,0,0,1-2.787-1.59v-2.619a6.359,6.359,0,0,0,5.619-.021Zm-9.252,2.092A9.271,9.271,0,0,0,2.647,312.7v9.987a.714.714,0,0,0,.711.716H33.328a.713.713,0,0,0,.711-.716V312.7a9.271,9.271,0,0,0-9.276-9.276.714.714,0,0,0,0,1.427,7.815,7.815,0,0,1,7.847,7.849v9.276H29.046v-6.434a.714.714,0,1,0-1.427,0v6.434H9.067v-6.434a.714.714,0,1,0-1.427,0v6.434H4.068V312.7a7.821,7.821,0,0,1,7.854-7.849.714.714,0,0,0,0-1.427Z" transform="translate(-2.647 -280.596)" fill="#ab1f57"/>
      </g>
    </g>
  </g>
</svg>
