<svg xmlns="http://www.w3.org/2000/svg" width="40.642" height="40.623" viewBox="0 0 40.642 40.623">
  <g id="Group_1853" data-name="Group 1853" transform="translate(-33.179)">
    <g id="hadith_2" data-name="hadith 2" transform="translate(33.179)">
      <g id="Group_1538" data-name="Group 1538">
        <path id="Path_9483" data-name="Path 9483" d="M40.182,27.468a1.067,1.067,0,0,0-1.4.129,18.075,18.075,0,0,1-4.661,3.457V29.248a.595.595,0,0,0-1.19,0v6.664a20.184,20.184,0,0,1-2.672,1.582V25.277h2.672v1.194a.595.595,0,0,0,1.19,0V21.608c1.01-1.371.28-2.872-1.109-3.581a2.258,2.258,0,0,1-.822-.694v-1.17a.595.595,0,1,0-1.19,0v1.17a2.261,2.261,0,0,1-.822.694c-1.4.713-2.116,2.214-1.109,3.581v1.075H26.492V19.622a3.6,3.6,0,0,0,.445-4.379,6.692,6.692,0,0,0-3.125-2.555,5.629,5.629,0,0,1-2.137-1.452,1.048,1.048,0,0,0-.446-.315V9.791A2.12,2.12,0,0,0,22.709,8.8a.595.595,0,1,0-1.015-.621.938.938,0,1,1-1.548-1.057A.6.6,0,0,0,19.2,6.4,2.128,2.128,0,0,0,19.6,9.384a2.142,2.142,0,0,0,.435.256v1.28a1.048,1.048,0,0,0-.446.315,5.63,5.63,0,0,1-2.137,1.452,6.692,6.692,0,0,0-3.125,2.555,3.6,3.6,0,0,0,.445,4.379v3.062H12.2V21.608a2.155,2.155,0,0,0,.259-2.254c-.681-1.289-1.609-1.226-2.071-1.886a.786.786,0,0,0-.12-.135v-1.17a.595.595,0,0,0-1.19,0v1.17a2.259,2.259,0,0,1-.822.694c-.1.05-.189.1-.279.161A18.343,18.343,0,0,1,7.7,14.961c0-.412.015-.84.045-1.274A.595.595,0,1,0,6.553,13.6c-.032.461-.048.917-.048,1.356a19.5,19.5,0,0,0,.468,4.25,2.105,2.105,0,0,0,.179,2.4V33.685A20.158,20.158,0,0,1,11.859,1.622,19.212,19.212,0,0,0,6.97,10.74.6.6,0,0,0,8.132,11a18.038,18.038,0,0,1,5.039-9.01A1.081,1.081,0,0,0,11.943.241,21.349,21.349,0,1,0,40.527,28.824a1.06,1.06,0,0,0-.345-1.357ZM11.014,36.694a20.245,20.245,0,0,1-2.672-1.914v-9.5h2.672Zm0-12.606H8.342v-2.1h2.672Zm.3-3.285H8.043a.957.957,0,0,1-.1-.891c.438-.829,1.042-.744,1.734-1.449.691.7,1.295.619,1.734,1.449A.955.955,0,0,1,11.314,20.8ZM14.777,38.45a20.109,20.109,0,0,1-2.573-1.1V23.873h2.573ZM22.6,39.515c-.378.023-.779.038-1.225.038a20.35,20.35,0,0,1-2.7-.18V32.606a3.362,3.362,0,0,1,1.9-3.041.134.134,0,0,1,.118,0h0a3.362,3.362,0,0,1,1.9,3.041v6.91ZM25.3,39.17q-.752.149-1.517.24v-6.8a4.544,4.544,0,0,0-2.57-4.111,1.316,1.316,0,0,0-1.162,0,4.544,4.544,0,0,0-2.57,4.111v6.572q-.765-.149-1.517-.357V25.654H25.3Zm0-14.706H15.967V19.969H25.3Zm.35-5.685H15.617a2.406,2.406,0,0,1-.277-2.9,5.53,5.53,0,0,1,2.587-2.094,6.858,6.858,0,0,0,2.539-1.734H20.8a6.858,6.858,0,0,0,2.539,1.734,5.529,5.529,0,0,1,2.587,2.094A2.406,2.406,0,0,1,25.652,18.779Zm3.413,19.253a20.062,20.062,0,0,1-2.573.864V23.873h2.573Zm3.862-13.945H30.255v-2.1h2.672Zm-3.07-4.177a1.939,1.939,0,0,1,.858-.823,3.357,3.357,0,0,0,.876-.625,3.355,3.355,0,0,0,.876.625,1.939,1.939,0,0,1,.858.823.955.955,0,0,1-.1.891H29.956a.955.955,0,0,1-.1-.891Zm4.26,15.1V32.384a19.239,19.239,0,0,0,5.027-3.474,20.323,20.323,0,0,1-5.027,6.1Z" transform="translate(0 -0.121)" fill="#ab1f57"/>
        <path id="Path_9484" data-name="Path 9484" d="M220.032,266.473a.6.6,0,0,0,.595-.595v-1.1a.595.595,0,0,0-1.19,0v1.1A.6.6,0,0,0,220.032,266.473Z" transform="translate(-202.029 -243.232)" fill="#ab1f57"/>
        <path id="Path_9485" data-name="Path 9485" d="M253.2,266.473a.6.6,0,0,0,.6-.595v-1.1a.595.595,0,0,0-1.19,0v1.1A.6.6,0,0,0,253.2,266.473Z" transform="translate(-232.564 -243.232)" fill="#ab1f57"/>
        <path id="Path_9486" data-name="Path 9486" d="M286.367,266.473a.6.6,0,0,0,.595-.595v-1.1a.6.6,0,0,0-1.19,0v1.1A.6.6,0,0,0,286.367,266.473Z" transform="translate(-263.101 -243.232)" fill="#ab1f57"/>
      </g>
    </g>
  </g>
</svg>
