<svg id="science" xmlns="http://www.w3.org/2000/svg" width="32.149" height="44.246" viewBox="0 0 32.149 44.246">
  <g id="Group_1530" data-name="Group 1530" transform="translate(7.855 6.052)">
    <g id="Group_1529" data-name="Group 1529">
      <path id="Path_9475" data-name="Path 9475" d="M179.84,70.036H161.526a.648.648,0,1,0,0,1.3h18.313a.648.648,0,0,0,0-1.3Z" transform="translate(-160.878 -70.036)" fill="#fff"/>
    </g>
  </g>
  <g id="Group_1532" data-name="Group 1532" transform="translate(7.855 9.46)">
    <g id="Group_1531" data-name="Group 1531">
      <path id="Path_9476" data-name="Path 9476" d="M179.84,109.474H161.526a.648.648,0,1,0,0,1.3h18.313a.648.648,0,1,0,0-1.3Z" transform="translate(-160.878 -109.474)" fill="#fff"/>
    </g>
  </g>
  <g id="Group_1534" data-name="Group 1534" transform="translate(11.179 12.884)">
    <g id="Group_1533" data-name="Group 1533" transform="translate(0)">
      <path id="Path_9477" data-name="Path 9477" d="M208.916,159.779a5.954,5.954,0,1,0-9.57-4.73,5.977,5.977,0,0,0,2.447,4.812,1.922,1.922,0,0,1,.771,1.417,1.687,1.687,0,0,0-1.01,1.543v.211a1.687,1.687,0,0,0,1.379,1.656v.615a1.7,1.7,0,0,0,1.7,1.7h1.334a1.7,1.7,0,0,0,1.7-1.7v-.615a1.687,1.687,0,0,0,1.379-1.656v-.211a1.686,1.686,0,0,0-1-1.536A2.281,2.281,0,0,1,208.916,159.779ZM206.37,165.3h0a.408.408,0,0,1-.4.4h-1.334a.408.408,0,0,1-.4-.4v-.586h2.139Zm1.379-2.271a.394.394,0,0,1-.389.389h-4.12a.394.394,0,0,1-.389-.389v-.211a.394.394,0,0,1,.389-.389h4.12a.394.394,0,0,1,.389.389Zm.379-4.281a3.586,3.586,0,0,0-1.366,2.386h-.814v-4.3h.811a.648.648,0,0,0,0-1.3H203.84a.648.648,0,0,0,0,1.3h.811v4.3h-.8a3.221,3.221,0,0,0-1.3-2.321,4.658,4.658,0,0,1,2.742-8.422h.04a4.657,4.657,0,0,1,2.788,8.358Z" transform="translate(-199.346 -149.095)" fill="#fff"/>
    </g>
  </g>
  <g id="Group_1536" data-name="Group 1536">
    <g id="Group_1535" data-name="Group 1535">
      <path id="Path_9478" data-name="Path 9478" d="M101.485,18.688a.648.648,0,0,0,.648-.648V1.253A1.254,1.254,0,0,0,100.88,0H74.1a4.122,4.122,0,0,0-4.117,4.117V36.784a3.083,3.083,0,0,0,3.079,3.079h2.011v3.322a1.06,1.06,0,0,0,1.781.775l1.632-1.519,1.632,1.519a1.06,1.06,0,0,0,1.781-.775V39.863H88.57a.648.648,0,0,0,0-1.3H81.9V37.2a1.06,1.06,0,0,0-1.059-1.059H76.132A1.061,1.061,0,0,0,75.073,37.2v1.372H73.062a1.783,1.783,0,1,1,0-3.566h27.774v3.466a.1.1,0,0,1-.1.1H91.595a.648.648,0,0,0,0,1.3h9.142a1.4,1.4,0,0,0,1.4-1.4v-17.4a.648.648,0,0,0-1.3,0V33.7H73.062a3.074,3.074,0,0,0-1.783.57V4.117A2.821,2.821,0,0,1,74.1,1.3h26.737V18.04A.648.648,0,0,0,101.485,18.688ZM76.37,37.432H80.6V42.64l-1.395-1.3a1.063,1.063,0,0,0-1.444,0l-1.395,1.3C76.37,42.219,76.37,38.171,76.37,37.432Z" transform="translate(-69.983 0)" fill="#fff"/>
    </g>
  </g>
</svg>
